<?xml version="1.0" encoding="UTF-8"?>
<svg version="1.1" xmlns="http://www.w3.org/2000/svg" width="32" height="32">
<path d="M0 0 C10.56 0 21.12 0 32 0 C32 10.56 32 21.12 32 32 C21.44 32 10.88 32 0 32 C0 21.44 0 10.88 0 0 Z " fill="#131A26" transform="translate(0,0)"/>
<path d="M0 0 C6.6 0 13.2 0 20 0 C20 2.97 20 5.94 20 9 C18.4779041 10.5220959 17.11789918 10.12959521 15 10.1328125 C14.195625 10.13410156 13.39125 10.13539062 12.5625 10.13671875 C11.716875 10.13285156 10.87125 10.12898438 10 10.125 C9.154375 10.12886719 8.30875 10.13273437 7.4375 10.13671875 C6.633125 10.13542969 5.82875 10.13414063 5 10.1328125 C4.2575 10.13168457 3.515 10.13055664 2.75 10.12939453 C1 10 1 10 0 9 C0 6.03 0 3.06 0 0 Z " fill="#547D13" transform="translate(7,15)"/>
<path d="M0 0 C6.6 0 13.2 0 20 0 C20 2.97 20 5.94 20 9 C18.4779041 10.5220959 17.11789918 10.12959521 15 10.1328125 C14.195625 10.13410156 13.39125 10.13539062 12.5625 10.13671875 C11.716875 10.13285156 10.87125 10.12898438 10 10.125 C9.154375 10.12886719 8.30875 10.13273437 7.4375 10.13671875 C6.633125 10.13542969 5.82875 10.13414063 5 10.1328125 C4.2575 10.13168457 3.515 10.13055664 2.75 10.12939453 C1 10 1 10 0 9 C0 6.03 0 3.06 0 0 Z M1 2 C0.95745644 3.99954746 0.95919217 6.00041636 1 8 C2.18852855 9.41774838 2.18852855 9.41774838 5.59765625 9.09765625 C7.08596867 9.0909822 8.57426432 9.07902183 10.0625 9.0625 C11.20041992 9.05573242 11.20041992 9.05573242 12.36132812 9.04882812 C14.24091871 9.0370068 16.12046899 9.01907078 18 9 C18 6.69 18 4.38 18 2 C15.40836129 1.92595318 13.15648615 1.96293749 10.625 2.5625 C7.24805549 3.12532409 4.35117256 2.59138339 1 2 Z " fill="#76B109" transform="translate(7,15)"/>
<path d="M0 0 C1.65 0 3.3 0 5 0 C5 2.31 5 4.62 5 7 C-0.28 7 -5.56 7 -11 7 C-7.57905758 4.71937172 -6.31812778 4.78074993 -2.3125 4.875 C-0.82169922 4.90207031 -0.82169922 4.90207031 0.69921875 4.9296875 C1.45847656 4.95289063 2.21773437 4.97609375 3 5 C3 4.01 3 3.02 3 2 C2.01 2 1.02 2 0 2 C0 1.34 0 0.68 0 0 Z " fill="#202E22" transform="translate(20,17)"/>
<path d="M0 0 C1.32 0 2.64 0 4 0 C3 3 3 3 2 4 C5.3 4 8.6 4 12 4 C12 3.34 12 2.68 12 2 C12.66 2 13.32 2 14 2 C13 5 13 5 11 6 C9.50350638 6.12005453 8.00125207 6.17531451 6.5 6.1875 C5.7059375 6.20167969 4.911875 6.21585938 4.09375 6.23046875 C2 6 2 6 0 4 C0 2.68 0 1.36 0 0 Z " fill="#699D0D" transform="translate(10,8)"/>
<path d="M0 0 C0.66 0 1.32 0 2 0 C2 2.97 2 5.94 2 9 C1.01 9.495 1.01 9.495 0 10 C-0.19412181 8.52168779 -0.38012131 7.04230684 -0.5625 5.5625 C-0.66691406 4.73878906 -0.77132813 3.91507813 -0.87890625 3.06640625 C-0.91886719 2.38449219 -0.95882813 1.70257812 -1 1 C-0.67 0.67 -0.34 0.34 0 0 Z " fill="#76B009" transform="translate(25,15)"/>
</svg>
